HIERARCHY
ROOT Hips
{
  OFFSET 56.2774 94.2962 33.3688
  CHANNELS 6 Xposition Yposition Zposition Zrotation Xrotation Yrotation
  JOINT spine
  {
    OFFSET 0 7.80059 0.448573
    CHANNELS 3 Zrotation Xrotation Yrotation
    JOINT spine1
    {
      OFFSET 0 10.1364 0
      CHANNELS 3 Zrotation Xrotation Yrotation
      JOINT spine2
      {
        OFFSET 0 9.71251 0
        CHANNELS 3 Zrotation Xrotation Yrotation
        JOINT Neck
        {
          OFFSET 0 24.9361 1.18887
          CHANNELS 3 Zrotation Xrotation Yrotation
          JOINT Head
          {
            OFFSET 0 7.53384 0
            CHANNELS 3 Zrotation Xrotation Yrotation
            End Site
            {
              OFFSET 0 18.2361 -6.01402
            }
          }
        }
        JOINT RightShoulder
        {
          OFFSET -4.08965 10.4888 -0.569457
          CHANNELS 3 Zrotation Xrotation Yrotation
          JOINT RightArm
          {
            OFFSET 0 13.757 0
            CHANNELS 3 Zrotation Xrotation Yrotation
            JOINT RightArmRoll
            {
              OFFSET 0 6.94478 0
              CHANNELS 3 Zrotation Xrotation Yrotation
              JOINT RightForeArm
              {
                OFFSET 0 20.2277 0
                CHANNELS 3 Zrotation Xrotation Yrotation
                JOINT RightForeArmRoll
                {
                  OFFSET 0 7.79312 0
                  CHANNELS 3 Zrotation Xrotation Yrotation
                  JOINT RightHand
                  {
                    OFFSET 0 15.6391 0
                    CHANNELS 3 Zrotation Xrotation Yrotation
                    End Site
                    {
                      OFFSET 0 0 0
                    }
                  }
                }
              }
            }
          }
        }
        JOINT LeftShoulder
        {
          OFFSET 4.08965 10.4888 -0.569457
          CHANNELS 3 Zrotation Xrotation Yrotation
          JOINT LeftArm
          {
            OFFSET 0 13.757 0
            CHANNELS 3 Zrotation Xrotation Yrotation
            JOINT LeftArmRoll
            {
              OFFSET 0 6.94478 0
              CHANNELS 3 Zrotation Xrotation Yrotation
              JOINT LeftForeArm
              {
                OFFSET 0 20.2277 0
                CHANNELS 3 Zrotation Xrotation Yrotation
                JOINT LeftForeArmRoll
                {
                  OFFSET 0 7.79312 0
                  CHANNELS 3 Zrotation Xrotation Yrotation
                  JOINT LeftHand
                  {
                    OFFSET 0 15.6391 0
                    CHANNELS 3 Zrotation Xrotation Yrotation
                    End Site
                    {
                      OFFSET 0 0 0
                    }
                  }
                }
              }
            }
          }
        }
      }
    }
  }
  JOINT RightUpLeg
  {
    OFFSET -6.91416 -1.26788 -1.06358
    CHANNELS 3 Zrotation Xrotation Yrotation
    JOINT RightUpLegRoll
    {
      OFFSET 0 18.3378 0
      CHANNELS 3 Zrotation Xrotation Yrotation
      JOINT RightLeg
      {
        OFFSET 0 -22.7085 0
        CHANNELS 3 Zrotation Xrotation Yrotation
        JOINT RightLegRoll
        {
          OFFSET 0 22.7828 0
          CHANNELS 3 Zrotation Xrotation Yrotation
          JOINT RightFoot
          {
            OFFSET 0 18.9629 0
            CHANNELS 3 Zrotation Xrotation Yrotation
            JOINT RightToeBase
            {
              OFFSET 0 15.852 0
              CHANNELS 3 Zrotation Xrotation Yrotation
              End Site
              {
                OFFSET 0.00671906 7.677 -0.884893
              }
            }
          }
        }
      }
    }
  }
  JOINT LeftUpLeg
  {
    OFFSET 6.91416 -1.26788 -1.06358
    CHANNELS 3 Zrotation Xrotation Yrotation
    JOINT LeftUpLegRoll
    {
      OFFSET 0 18.3379 0
      CHANNELS 3 Zrotation Xrotation Yrotation
      JOINT LeftLeg
      {
        OFFSET 0 22.7084 0
        CHANNELS 3 Zrotation Xrotation Yrotation
        JOINT LeftLegRoll
        {
          OFFSET 0 22.9934 0
          CHANNELS 3 Zrotation Xrotation Yrotation
          JOINT LeftFoot
          {
            OFFSET 0 18.7522 0
            CHANNELS 3 Zrotation Xrotation Yrotation
            JOINT LeftToeBase
            {
              OFFSET 0 15.852 0
              CHANNELS 3 Zrotation Xrotation Yrotation
              End Site
              {
                OFFSET -0.030112 7.67701 -0.884892
              }
            }
          }
        }
      }
    }
  }
}
MOTION
Frames: 14
Frame Time: 0.00208333
51.0845 78.3467 14.3749 -4.2212 24.2104 11.8594 0.709377 2.31865 -0.214073 1.44156 8.63634 -0.551215 1.45245 10.2811 -0.576892 -28.4645 -50.5335 -18.5464 11.1945 6.96531 -7.2832 50.9197 -8.92992 -5.40932 131.281 46.2684 -53.1557 -2.63032e-006 -1.93465e-006 -2.10315e-006 32.0364 16.2651 -2.50109 1.36947e-005 -8.47614e-006 -3 8.02976 -4.95153 0.697797 -59.6829 -5.6864 3.57298 -109.891 37.3406 31.211 3.28653e-007 -6.80093e-007 -1.6881e-006 -21.4266 28.0597 6.73528 -9.02607e-007 -7.34303e-006 3 -8.02905 -4.95141 -0.697668 159.494 71.746 19.6818 -180 -1.52579e-005 179.372 169.256 64.782 -174.221 2.31404e-006 2.91661e-007 1.05148 -38.6744 78.8564 38.9372 8.13649 25.2327 -3.48774 -149.575 69.352 -34.2837 4.5067e-006 -1.99009e-005 -0.801378 -22.6734 -60.4201 -12.7013 5.57605e-007 4.0958e-006 -1.02395 38.8388 75.5337 -31.9903 -8.13529 25.241 3.48329 
51.0603 78.491 14.4515 -4.22342 24.0969 11.8695 0.710058 2.30945 -0.211761 1.44274 8.61796 -0.546573 1.45357 10.2627 -0.572257 -28.3354 -50.5209 -18.4417 11.1346 7.01432 -7.24472 51.1111 -8.90161 -5.39183 131.207 46.3046 -52.7697 -2.63032e-006 -1.93465e-006 -2.10315e-006 31.948 15.8402 -2.38846 1.36947e-005 -8.47614e-006 -3 8.02976 -4.95153 0.697797 -59.7181 -5.6349 3.54344 -110.074 37.2228 30.9786 3.28653e-007 -6.80093e-007 -1.6881e-006 -21.2744 27.7451 6.62669 -9.02607e-007 -7.34303e-006 3 -8.02905 -4.95141 -0.697668 159.94 71.3997 19.2264 -180 -1.52579e-005 179.372 169.299 64.459 -174.285 2.31404e-006 2.91661e-007 1.04385 -38.5081 78.8067 38.7556 8.13649 25.2327 -3.48774 -150.07 69.0471 -33.7177 4.5067e-006 -1.99009e-005 -0.798397 -22.5377 -60.0975 -12.5413 5.57605e-007 4.0958e-006 -1.01265 38.6396 75.4667 -31.8078 -8.13529 25.241 3.48329 
51.0611 78.6442 14.5267 -4.2232 23.9849 11.8804 0.710425 2.29965 -0.210433 1.44334 8.59837 -0.543839 1.45413 10.2432 -0.569523 -28.2181 -50.5017 -18.3414 11.088 7.06216 -7.20702 51.2942 -8.8759 -5.37621 131.142 46.338 -52.3891 -2.63032e-006 -1.93465e-006 -2.10315e-006 31.8556 15.4182 -2.27769 1.36947e-005 -8.47614e-006 -3 8.02976 -4.95153 0.697797 -59.7533 -5.58669 3.51581 -110.259 37.1045 30.7399 3.28653e-007 -6.80093e-007 -1.6881e-006 -21.1161 27.424 6.51663 -9.02607e-007 -7.34303e-006 3 -8.02905 -4.95141 -0.697668 160.358 71.0526 18.7974 -180 -1.52579e-005 179.371 169.341 64.1368 -174.35 2.31404e-006 2.91661e-007 1.03622 -38.3432 78.7575 38.5769 8.13649 25.2327 -3.48774 -150.562 68.7429 -33.154 4.5067e-006 -1.99009e-005 -0.795476 -22.4037 -59.7755 -12.3842 5.57605e-007 4.0958e-006 -1.00149 38.444 75.4013 -31.6307 -8.13529 25.241 3.48329 
51.0668 78.7985 14.6073 -4.22087 23.8737 11.8908 0.710355 2.28943 -0.209957 1.4431 8.57792 -0.542725 1.45386 10.2227 -0.568399 -28.1096 -50.4773 -18.2439 11.054 7.10936 -7.16953 51.4702 -8.8527 -5.36243 131.091 46.3705 -52.0144 -2.63032e-006 -1.93465e-006 -2.10315e-006 31.7586 14.9945 -2.16715 1.36947e-005 -8.47614e-006 -3 8.02976 -4.95153 0.697797 -59.7854 -5.54336 3.49105 -110.454 36.9863 30.4972 3.28653e-007 -6.80093e-007 -1.6881e-006 -20.9498 27.0918 6.40335 -9.02607e-007 -7.34303e-006 3 -8.02905 -4.95141 -0.697668 160.756 70.7042 18.3881 -180 -1.52579e-005 179.371 169.385 63.8148 -174.414 2.31404e-006 2.91661e-007 1.02861 -38.1782 78.7084 38.3994 8.13649 25.2327 -3.48774 -151.049 68.4383 -32.5945 4.5067e-006 -1.99009e-005 -0.792585 -22.2705 -59.4538 -12.2292 5.57605e-007 4.0958e-006 -0.990384 38.2501 75.337 -31.4577 -8.13529 25.241 3.48329 
51.0578 78.9506 14.6821 -4.21668 23.7629 11.9008 0.709903 2.2788 -0.210218 1.44212 8.55668 -0.543013 1.45287 10.2015 -0.568666 -28.0089 -50.4478 -18.1491 11.031 7.15588 -7.13233 51.6399 -8.83169 -5.35028 131.05 46.4016 -51.6445 -2.63032e-006 -1.93465e-006 -2.10315e-006 31.6573 14.5709 -2.05732 1.36947e-005 -8.47614e-006 -3 8.02976 -4.95153 0.697797 -59.8146 -5.50442 3.46887 -110.656 36.8678 30.2511 3.28653e-007 -6.80093e-007 -1.6881e-006 -20.7769 26.7506 6.28764 -9.02607e-007 -7.34303e-006 3 -8.02905 -4.95141 -0.697668 161.134 70.3548 17.9969 -180 -1.52579e-005 179.371 169.43 63.4929 -174.479 2.31404e-006 2.91661e-007 1.02103 -38.0131 78.6593 38.223 8.13649 25.2327 -3.48774 -151.53 68.1331 -32.0399 4.5067e-006 -1.99009e-005 -0.789728 -22.1381 -59.1325 -12.0763 5.57605e-007 4.0958e-006 -0.979361 38.0581 75.2738 -31.2883 -8.13529 25.241 3.48329 
51.0678 79.1012 14.758 -4.2109 23.6527 11.9105 0.709126 2.26782 -0.211101 1.44051 8.5347 -0.544482 1.45127 10.1795 -0.570107 -27.9149 -50.4134 -18.0564 11.0175 7.20169 -7.09549 51.804 -8.81257 -5.33954 131.017 46.4311 -51.2784 -2.63032e-006 -1.93465e-006 -2.10315e-006 31.5524 14.1492 -1.94871 1.36947e-005 -8.47614e-006 -3 8.02976 -4.95153 0.697797 -59.8412 -5.46937 3.44899 -110.865 36.7488 30.0019 3.28653e-007 -6.80093e-007 -1.6881e-006 -20.5984 26.4024 6.17027 -9.02607e-007 -7.34303e-006 3 -8.02905 -4.95141 -0.697668 161.494 70.0044 17.6224 -180 -1.52579e-005 179.37 169.476 63.1713 -174.544 2.31404e-006 2.91661e-007 1.01348 -37.848 78.6102 38.0478 8.13649 25.2327 -3.48774 -152.004 67.8271 -31.4915 4.5067e-006 -1.99009e-005 -0.78691 -22.0066 -58.8117 -11.9253 5.57605e-007 4.0958e-006 -0.968439 37.8678 75.2115 -31.1225 -8.13529 25.241 3.48329 
51.06 79.2535 14.8355 -4.20378 23.5427 11.9199 0.70808 2.25649 -0.21249 1.43838 8.51204 -0.546914 1.44915 10.1568 -0.572503 -27.8266 -50.3744 -17.9656 11.012 7.24676 -7.05909 51.9634 -8.79502 -5.32998 130.989 46.4584 -50.915 -2.63032e-006 -1.93465e-006 -2.10315e-006 31.4441 13.7312 -1.8418 1.36947e-005 -8.47614e-006 -3 8.02976 -4.95153 0.697797 -59.8655 -5.43772 3.4311 -111.078 36.6288 29.7501 3.28653e-007 -6.80093e-007 -1.6881e-006 -20.4155 26.0494 6.05197 -9.02607e-007 -7.34303e-006 3 -8.02905 -4.95141 -0.697668 161.838 69.6532 17.2632 -180 -1.52579e-005 179.37 169.522 62.85 -174.608 2.31404e-006 2.91661e-007 1.00597 -37.6832 78.5612 37.8738 8.13649 25.2327 -3.48774 -152.47 67.5204 -30.9502 4.5067e-006 -1.99009e-005 -0.784135 -21.8759 -58.4915 -11.7763 5.57605e-007 4.0958e-006 -0.95764 37.6793 75.1501 -30.9601 -8.13529 25.241 3.48329 
51.0492 79.4193 14.9182 -4.19557 23.4329 11.9291 0.706821 2.24486 -0.21427 1.43583 8.48876 -0.550087 1.44663 10.1335 -0.575635 -27.7429 -50.331 -17.8762 11.013 7.29104 -7.02319 52.1188 -8.77872 -5.3214 130.964 46.4832 -50.5532 -2.63032e-006 -1.93465e-006 -2.10315e-006 31.333 13.3187 -1.73707 1.36947e-005 -8.47614e-006 -3 8.02976 -4.95153 0.697797 -59.8879 -5.40898 3.41492 -111.294 36.5077 29.4962 3.28653e-007 -6.80093e-007 -1.6881e-006 -20.2293 25.6936 5.93345 -9.02607e-007 -7.34303e-006 3 -8.02905 -4.95141 -0.697668 162.168 69.3013 16.9181 -180 -1.52579e-005 179.369 169.568 62.529 -174.673 2.31404e-006 2.91661e-007 0.998504 -37.5188 78.5121 37.7009 8.13649 25.2327 -3.48774 -152.927 67.2127 -30.4168 4.5067e-006 -1.99009e-005 -0.781408 -21.7462 -58.172 -11.6293 5.57605e-007 4.0958e-006 -0.946986 37.4926 75.0895 -30.8008 -8.13529 25.241 3.48329 
51.0449 79.5544 14.9947 -4.18655 23.3233 11.9383 0.705406 2.23295 -0.216326 1.43299 8.46492 -0.553784 1.44381 10.1097 -0.579286 -27.6628 -50.2833 -17.788 11.0191 7.3345 -6.98789 52.2711 -8.76337 -5.31356 130.939 46.5049 -50.192 -2.63032e-006 -1.93465e-006 -2.10315e-006 31.2195 12.9135 -1.63498 1.36947e-005 -8.47614e-006 -3 8.02976 -4.95153 0.697797 -59.9085 -5.38265 3.40015 -111.511 36.385 29.2405 3.28653e-007 -6.80093e-007 -1.6881e-006 -20.0409 25.3371 5.81541 -9.02607e-007 -7.34303e-006 3 -8.02905 -4.95141 -0.697668 162.484 68.9489 16.5859 -180 -1.52579e-005 179.369 169.614 62.2084 -174.737 2.31404e-006 2.91661e-007 0.991076 -37.3549 78.463 37.5292 8.13649 25.2327 -3.48774 -153.375 66.9041 -29.8922 4.5067e-006 -1.99009e-005 -0.778734 -21.6173 -57.8533 -11.4843 5.57605e-007 4.0958e-006 -0.936498 37.3078 75.0297 -30.6445 -8.13529 25.241 3.48329 
51.0463 79.6956 15.0697 -4.17697 23.2136 11.9473 0.703892 2.22079 -0.218541 1.42994 8.44058 -0.557783 1.44079 10.0853 -0.583236 -27.5853 -50.2316 -17.7005 11.0286 7.37711 -6.95324 52.4211 -8.74865 -5.30627 130.912 46.523 -49.8304 -2.63032e-006 -1.93465e-006 -2.10315e-006 31.1039 12.5174 -1.53602 1.36947e-005 -8.47614e-006 -3 8.02976 -4.95153 0.697797 -59.9278 -5.35824 3.38651 -111.729 36.2605 28.9836 3.28653e-007 -6.80093e-007 -1.6881e-006 -19.8514 24.9819 5.69851 -9.02607e-007 -7.34303e-006 3 -8.02905 -4.95141 -0.697668 162.788 68.596 16.2654 -180 -1.52579e-005 179.368 169.66 61.8882 -174.8 2.31404e-006 2.91661e-007 0.983694 -37.1917 78.4138 37.3586 8.13649 25.2327 -3.48774 -153.813 66.5946 -29.3772 4.5067e-006 -1.99009e-005 -0.776116 -21.4895 -57.5356 -11.3411 5.57605e-007 4.0958e-006 -0.926197 37.1248 74.9704 -30.4909 -8.13529 25.241 3.48329 
51.0405 79.8477 15.1504 -4.16708 23.1038 11.9564 0.702334 2.20842 -0.220802 1.42681 8.4158 -0.561867 1.43768 10.0606 -0.58727 -27.5092 -50.176 -17.6133 11.0402 7.41883 -6.91933 52.5694 -8.73424 -5.29929 130.881 46.5371 -49.4674 -2.63032e-006 -1.93465e-006 -2.10315e-006 30.9865 12.1323 -1.44063 1.36947e-005 -8.47614e-006 -3 8.02976 -4.95153 0.697797 -59.946 -5.33525 3.3737 -111.944 36.134 28.7258 3.28653e-007 -6.80093e-007 -1.6881e-006 -19.6616 24.6302 5.5834 -9.02607e-007 -7.34303e-006 3 -8.02905 -4.95141 -0.697668 163.082 68.2427 15.9556 -180 -1.52579e-005 179.368 169.706 61.5685 -174.863 2.31404e-006 2.91661e-007 0.976362 -37.0293 78.3645 37.1892 8.13649 25.2327 -3.48774 -154.241 66.284 -28.8727 4.5067e-006 -1.99009e-005 -0.773561 -21.3626 -57.2188 -11.1998 5.57605e-007 4.0958e-006 -0.916104 36.9438 74.9117 -30.3401 -8.13529 25.241 3.48329 
51.0447 79.9967 15.2233 -4.15714 22.9937 11.9656 0.700791 2.19585 -0.222992 1.42369 8.39065 -0.565814 1.4346 10.0354 -0.591167 -27.4336 -50.1168 -17.5261 11.0524 7.45961 -6.88623 52.717 -8.71984 -5.29241 130.843 46.5465 -49.1018 -2.63032e-006 -1.93465e-006 -2.10315e-006 30.8677 11.76 -1.34928 1.36947e-005 -8.47614e-006 -3 8.02976 -4.95153 0.697797 -59.9634 -5.31318 3.36143 -112.157 36.005 28.4677 3.28653e-007 -6.80093e-007 -1.6881e-006 -19.4726 24.284 5.47071 -9.02607e-007 -7.34303e-006 3 -8.02905 -4.95141 -0.697668 163.366 67.8893 15.6555 -180 -1.52579e-005 179.367 169.752 61.2492 -174.925 2.31404e-006 2.91661e-007 0.969081 -36.8678 78.3151 37.021 8.13649 25.2327 -3.48774 -154.658 65.9724 -28.3795 4.5067e-006 -1.99009e-005 -0.771071 -21.2367 -56.9032 -11.0603 5.57605e-007 4.0958e-006 -0.906241 36.7647 74.8535 -30.1917 -8.13529 25.241 3.48329 
51.0364 80.1379 15.3051 -4.14741 22.8833 11.9749 0.699318 2.18312 -0.224996 1.42071 8.36517 -0.569406 1.43164 10.0099 -0.594711 -27.3573 -50.0541 -17.4385 11.0635 7.49944 -6.85401 52.8646 -8.70513 -5.28541 130.796 46.5507 -48.7327 -2.63032e-006 -1.93465e-006 -2.10315e-006 30.7477 11.4021 -1.26243 1.36947e-005 -8.47614e-006 -3 8.02976 -4.95153 0.697797 -59.9804 -5.29155 3.34941 -112.364 35.8734 28.2097 3.28653e-007 -6.80093e-007 -1.6881e-006 -19.2852 23.9455 5.36106 -9.02607e-007 -7.34303e-006 3 -8.02905 -4.95141 -0.697668 163.642 67.5356 15.364 -180 -1.52579e-005 179.367 169.796 60.9305 -174.986 2.31404e-006 2.91661e-007 0.961857 -36.7075 78.2656 36.8539 8.13649 25.2327 -3.48774 -155.063 65.6598 -27.8982 4.5067e-006 -1.99009e-005 -0.768652 -21.1118 -56.5887 -10.9226 5.57605e-007 4.0958e-006 -0.89663 36.5876 74.7957 -30.0456 -8.13529 25.241 3.48329 
51.0347 80.2713 15.3842 -4.13815 22.7725 11.9844 0.697974 2.17026 -0.226699 1.41797 8.33943 -0.572424 1.42891 9.98419 -0.597682 -27.2794 -49.9882 -17.3502 11.0722 7.53826 -6.82276 53.013 -8.6898 -5.27808 130.737 46.5492 -48.3592 -2.63032e-006 -1.93465e-006 -2.10315e-006 30.6269 11.0607 -1.18052 1.36947e-005 -8.47614e-006 -3 8.02976 -4.95153 0.697797 -59.9971 -5.26986 3.33736 -112.566 35.7388 27.9522 3.28653e-007 -6.80093e-007 -1.6881e-006 -19.1004 23.6167 5.25504 -9.02607e-007 -7.34303e-006 3 -8.02905 -4.95141 -0.697668 163.911 67.1819 15.0804 -180 -1.52579e-005 179.366 169.84 60.6124 -175.046 2.31404e-006 2.91661e-007 0.954691 -36.5484 78.2159 36.688 8.13649 25.2327 -3.48774 -155.456 65.3461 -27.4295 4.5067e-006 -1.99009e-005 -0.766309 -20.9879 -56.2756 -10.7867 5.57605e-007 4.0958e-006 -0.887292 36.4126 74.7381 -29.9017 -8.13529 25.241 3.48329 
